<svg xmlns="http://www.w3.org/2000/svg" viewBox="0 0 163.57 70.79"><defs><style>.cls-1{fill:#fff;}</style></defs><title>pnp-spfx-generator</title><g id="Layer_2" data-name="Layer 2"><g id="Layer_1-2" data-name="Layer 1"><path class="cls-1" d="M79.37,32V26.81a10,10,0,0,0,6.38,2.35A7.33,7.33,0,0,0,87.47,29a3.93,3.93,0,0,0,1.22-.49,2.18,2.18,0,0,0,.74-.74,1.83,1.83,0,0,0,.24-.92,2,2,0,0,0-.39-1.21,4.16,4.16,0,0,0-1-1,11.59,11.59,0,0,0-1.59-.87c-.62-.28-1.28-.56-2-.85a10.19,10.19,0,0,1-4.05-2.75,6,6,0,0,1-1.33-3.93A6.14,6.14,0,0,1,80,13.15,6,6,0,0,1,82,11a8.77,8.77,0,0,1,2.89-1.23,14.64,14.64,0,0,1,3.49-.4,21.67,21.67,0,0,1,3.21.22,12.49,12.49,0,0,1,2.58.67v4.81a7.82,7.82,0,0,0-1.27-.71,10,10,0,0,0-1.42-.51,12.29,12.29,0,0,0-1.44-.3,11.1,11.1,0,0,0-1.37-.09,6.69,6.69,0,0,0-1.61.17,4.21,4.21,0,0,0-1.23.47,2.35,2.35,0,0,0-.77.73,1.71,1.71,0,0,0-.28,1,1.79,1.79,0,0,0,.31,1,3.58,3.58,0,0,0,.87.87,9.94,9.94,0,0,0,1.37.8q.81.39,1.83.81a21.41,21.41,0,0,1,2.49,1.23A9.3,9.3,0,0,1,93.53,22a5.67,5.67,0,0,1,1.21,1.88,6.58,6.58,0,0,1,.42,2.45,6.52,6.52,0,0,1-.73,3.24,6,6,0,0,1-2,2.12,8.74,8.74,0,0,1-2.93,1.17,17.39,17.39,0,0,1-3.53.35,19.12,19.12,0,0,1-3.62-.32A11.1,11.1,0,0,1,79.37,32Z"/><path class="cls-1" d="M104.19,24.9v7.94H99V9.78h8.18q8.75,0,8.75,7.35a7.06,7.06,0,0,1-2.51,5.62,10,10,0,0,1-6.71,2.15Zm0-11.13V21h2c2.78,0,4.17-1.22,4.17-3.64s-1.39-3.55-4.17-3.55Z"/><path class="cls-1" d="M132.68,14h-8.17v5.66H132v4.21h-7.51v9h-5.22V9.78h13.39Z"/><path class="cls-1" d="M152,16.37l-5.46,8,5.43,8.49h-5.88l-2.39-4.44c-.19-.35-.42-.85-.69-1.49h-.07a9.94,9.94,0,0,1-.66,1.44l-2.41,4.49H134l5.59-8.2-5.25-8.27h5.91L142.58,21a10.22,10.22,0,0,1,.66,1.54h.07A10.46,10.46,0,0,1,144,21l2.41-4.59Z"/><path class="cls-1" d="M53.9,14.07h-2V21h2c2.67,0,4-1.17,4-3.49S56.57,14.07,53.9,14.07Z"/><path class="cls-1" d="M15.16,14.07h-2V21h2c2.66,0,4-1.17,4-3.49S17.82,14.07,15.16,14.07Z"/><path class="cls-1" d="M0,0V42.64l70,.11V.12ZM22,22.7a9.57,9.57,0,0,1-6.45,2.06H13.19V32.4h-5V10.24H16q8.41,0,8.41,7.06A6.74,6.74,0,0,1,22,22.7Zm20.54,9.7H37.67V23.6q0-3.68-2.64-3.67a2.59,2.59,0,0,0-2.09,1,3.69,3.69,0,0,0-.83,2.47v9h-4.9V16.57h4.9v2.51h.07a5.6,5.6,0,0,1,5.1-2.89q5.28,0,5.28,6.52Zm18.2-9.7a9.52,9.52,0,0,1-6.44,2.06H51.93V32.4h-5V10.24h7.85q8.4,0,8.41,7.06A6.75,6.75,0,0,1,60.76,22.7Z"/><path class="cls-1" d="M161.29,2.4V40.48H70.08V2.4h91.21M163.57.13H67.8V42.76h95.77V.13Z"/><path class="cls-1" d="M36.48,61.25a9.9,9.9,0,0,1-2.27.83,11.24,11.24,0,0,1-2.66.29,8.89,8.89,0,0,1-2.91-.45,6.57,6.57,0,0,1-2.22-1.28,5.75,5.75,0,0,1-1.43-2A6.79,6.79,0,0,1,24.5,56a6.63,6.63,0,0,1,.55-2.73,6.17,6.17,0,0,1,1.55-2.15A7.27,7.27,0,0,1,29,49.68a8.93,8.93,0,0,1,3.08-.5,13.82,13.82,0,0,1,2.12.15,9.47,9.47,0,0,1,1.8.46v2.45a7.48,7.48,0,0,0-3.82-.93,5.1,5.1,0,0,0-1.9.34,4.4,4.4,0,0,0-1.48.92,4.21,4.21,0,0,0-1,1.43,4.59,4.59,0,0,0-.35,1.83,5.27,5.27,0,0,0,.29,1.84,4,4,0,0,0,.82,1.38,3.54,3.54,0,0,0,1.3.87,4.52,4.52,0,0,0,1.73.31,5.82,5.82,0,0,0,1.1-.1,3.6,3.6,0,0,0,.91-.3V57.16H31V55.08h5.49Z"/><path class="cls-1" d="M47.91,62.15h-8V49.39h7.65V51.5H42.8v3.15h4.41v2.11H42.8v3.29h5.11Z"/><path class="cls-1" d="M62.91,62.15H60l-5.78-8c-.2-.27-.38-.53-.52-.76s-.24-.41-.31-.54h-.05a6,6,0,0,1,.06.76c0,.33,0,.72,0,1.17v7.35H50.8V49.39h3.05l5.67,7.88c.22.29.38.53.49.71s.22.34.3.48h0q0-.26-.06-.72c0-.31,0-.69,0-1.13V49.39h2.65Z"/><path class="cls-1" d="M74.82,62.15h-8V49.39H74.5V51.5H69.71v3.15h4.41v2.11H69.71v3.29h5.11Z"/><path class="cls-1" d="M88.47,62.15H85.12l-2-3.44a5.65,5.65,0,0,0-.47-.74,2.27,2.27,0,0,0-.45-.47,1.23,1.23,0,0,0-.48-.25,1.81,1.81,0,0,0-.54-.07h-.64v5H77.71V49.39h4.68a6,6,0,0,1,3.55.88,2.91,2.91,0,0,1,1.24,2.55,3.29,3.29,0,0,1-.86,2.25,3.79,3.79,0,0,1-1,.76,5.43,5.43,0,0,1-1.24.49v0a2.73,2.73,0,0,1,1,.64,6.06,6.06,0,0,1,.9,1.15Zm-4.28-9.08a1.45,1.45,0,0,0-.58-1.31,3.19,3.19,0,0,0-1.73-.38H80.57v3.79h1A4.1,4.1,0,0,0,82.6,55a2.51,2.51,0,0,0,.84-.39A1.76,1.76,0,0,0,84,54,2,2,0,0,0,84.19,53.07Z"/><path class="cls-1" d="M101.73,62.15H98.64l-1.07-3h-4.8l-1,3H88.66l5-12.76h3.21Zm-4.81-5-1.41-4.05c-.07-.2-.14-.43-.2-.67a2.91,2.91,0,0,1-.12-.65h-.06c0,.19-.07.39-.12.63s-.13.47-.21.71l-1.34,4Z"/><path class="cls-1" d="M112,51.56h-3.89V62.15h-2.86V51.56h-3.91V49.39H112Z"/><path class="cls-1" d="M119.45,62.37a7.39,7.39,0,0,1-2.68-.46,5.9,5.9,0,0,1-3.41-3.37,6.89,6.89,0,0,1-.47-2.61,7.65,7.65,0,0,1,.46-2.72,6.29,6.29,0,0,1,1.35-2.14,6.21,6.21,0,0,1,2.14-1.4,7.74,7.74,0,0,1,2.85-.49,7.08,7.08,0,0,1,2.66.48,6,6,0,0,1,2,1.36,5.79,5.79,0,0,1,1.3,2,7,7,0,0,1,.46,2.58,7.7,7.7,0,0,1-.48,2.79,6.08,6.08,0,0,1-1.38,2.12,6.16,6.16,0,0,1-2.11,1.35A7.38,7.38,0,0,1,119.45,62.37Zm.13-11a3.64,3.64,0,0,0-1.55.32,3.23,3.23,0,0,0-1.17.9,4.33,4.33,0,0,0-.73,1.4,6.11,6.11,0,0,0-.25,1.82,6.42,6.42,0,0,0,.24,1.82,4.06,4.06,0,0,0,.71,1.39,3.09,3.09,0,0,0,1.13.89,3.52,3.52,0,0,0,1.51.31,4.08,4.08,0,0,0,1.58-.29,3.08,3.08,0,0,0,1.15-.86,3.91,3.91,0,0,0,.7-1.38,6.53,6.53,0,0,0,.24-1.85,6.77,6.77,0,0,0-.23-1.88,3.85,3.85,0,0,0-.67-1.41,2.83,2.83,0,0,0-1.11-.88A3.76,3.76,0,0,0,119.58,51.35Z"/><path class="cls-1" d="M139.8,62.15h-3.34l-2-3.44A6.85,6.85,0,0,0,134,58a2.27,2.27,0,0,0-.45-.47,1.27,1.27,0,0,0-.47-.25,1.93,1.93,0,0,0-.55-.07h-.64v5H129V49.39h4.69a6.06,6.06,0,0,1,3.55.88,2.93,2.93,0,0,1,1.23,2.55,3.15,3.15,0,0,1-.23,1.24,3.28,3.28,0,0,1-.62,1,3.67,3.67,0,0,1-1,.76,5.43,5.43,0,0,1-1.24.49v0a2.86,2.86,0,0,1,1,.64,6.48,6.48,0,0,1,.89,1.15Zm-4.28-9.08a1.42,1.42,0,0,0-.58-1.31,3.15,3.15,0,0,0-1.72-.38H131.9v3.79h.95a4.18,4.18,0,0,0,1.09-.13,2.71,2.71,0,0,0,.84-.39,1.83,1.83,0,0,0,.54-.66A2,2,0,0,0,135.52,53.07Z"/><path class="cls-1" d="M161.23,42.69V68.51H2.28V42.69h159m2.28-2.28H0V70.79H163.51V40.41Z"/></g></g></svg>