<svg xmlns="http://www.w3.org/2000/svg" viewBox="0 0 7598.34 1997.86"><defs><style>.cls-1{fill:#fff;}</style></defs><title>Asset 8</title><g id="Layer_2" data-name="Layer 2"><g id="Layer_1-2" data-name="Layer 1"><path class="cls-1" d="M3701.62,1497.42V1256.27q65.55,55,142.43,82.52t155.24,27.5q45.95,0,80.25-8.28t57.27-23q23-14.67,34.28-34.66A86.59,86.59,0,0,0,4182.4,1257q0-31.65-18.09-56.5t-49.36-46q-31.26-21.1-74.22-40.7t-92.68-39.94q-126.62-52.76-188.79-128.86t-62.17-183.87q0-84.4,33.91-145.06a287.83,287.83,0,0,1,92.32-99.86q58.39-39.19,135.28-57.65t162.77-18.46q84.41,0,149.58,10.18t120.2,31.26V706.92A363.73,363.73,0,0,0,4332,673.76,471,471,0,0,0,4266,650a505.76,505.76,0,0,0-67.43-13.94,478.19,478.19,0,0,0-63.68-4.52q-41.48,0-75.37,7.91t-57.28,22.24Q3978.93,676,3966.11,696a81.27,81.27,0,0,0-12.8,44.82q0,27.13,14.31,48.62t40.69,40.7q26.39,19.2,64.07,37.67t85.16,38.06Q4222.35,933,4274,963.51t88.54,69a268.79,268.79,0,0,1,56.52,87.78q19.6,49.38,19.6,114.92,0,90.43-34.3,151.85a278,278,0,0,1-93,99.48q-58.79,38.05-136.78,54.62t-164.65,16.58q-88.92,0-169.19-15.07T3701.62,1497.42Z"/><path class="cls-1" d="M4859.88,1166.6v372.27H4616.46V458.24h381.31q408.45,0,408.44,344.38,0,162.76-117.18,263.38t-313.1,100.6Zm0-521.47V982h95.69Q5150,982,5150,811.66q0-166.51-194.43-166.53Z"/><path class="cls-1" d="M6189.19,656.42H5807.88V921.68h350.41v197.44H5807.88v419.75H5564.47V458.24h624.72Z"/><path class="cls-1" d="M7089,767.21,6834.25,1141l253.2,397.89h-274.3l-111.53-208q-13.56-24.87-32.4-70.1h-3q-11.32,31.65-30.91,67.83L6523,1538.87H6249.47l260.74-384.32L6265.3,767.21h275.82l110,216.27q21.82,43,30.89,72.34h3A510.29,510.29,0,0,1,6717.45,982l112.28-214.76Z"/><path class="cls-1" d="M7506.34,92V1905.86H3279.71V92H7506.34m92-92H3187.71V1997.86H7598.34V0Z"/><path class="cls-1" d="M2513.16,659.38h-91.93V983h91.93Q2700,983,2700,819.37,2700,659.41,2513.16,659.38Z"/><path class="cls-1" d="M705.4,659.38H613.47V983H705.4q186.79,0,186.79-163.62Q892.19,659.41,705.4,659.38Z"/><path class="cls-1" d="M0,0V1997.86H3224.38V0ZM1025.76,1063.72q-112.57,96.66-300.8,96.65H613.47V1518H379.62V479.84H746q392.39,0,392.39,330.85Q1138.34,967.07,1025.76,1063.72ZM1983.94,1518h-228V1106.07q0-172.3-123.08-172.31-59.37,0-97.74,45.62t-38.37,115.84V1518H1267.94V776.67h228.77V894h2.9q81.78-135.37,238.18-135.39,246.15,0,246.15,305.52Zm849.58-454.3q-112.56,96.66-300.8,96.65H2421.23V1518H2187.38V479.84h366.33q392.39,0,392.39,330.85Q2946.1,967.07,2833.52,1063.72Z"/></g></g></svg>